<svg viewBox="0 0 364.14 364.14" xmlns="http://www.w3.org/2000/svg"><path d="M354.069 98.456c-2.163-6.716-6.812-12.185-13.086-15.399L184.652 2.917c-6.275-3.214-13.43-3.793-20.144-1.631-6.716 2.164-12.185 6.812-15.4 13.087l-.098.192-13.475-4.539c-13.805-4.649-28.82 2.795-33.468 16.597l-1.41 4.196-20.983-3.158c-6.978-1.048-13.944.679-19.62 4.867-5.678 4.189-9.382 10.338-10.431 17.313l-.047.314h-14.38c-14.563 0-26.411 11.848-26.411 26.411v261.163c0 14.563 11.848 26.411 26.411 26.411h175.667c10.811 0 20.125-6.53 24.207-15.853.315-.721 117.37-229.687 117.37-229.687 3.214-6.275 3.793-13.43 1.629-20.144zm-89.803-29.478a18.288 18.288 0 013.396 13.673l-30.39 201.905V76.566c0-7.049-2.781-13.456-7.297-18.197l22.218 3.343a18.298 18.298 0 0112.073 7.266zm11.307 14.864c1.05-6.976-.681-13.943-4.872-19.617-.076-.103-.157-.2-.234-.302l28.985 9.765c4.66 1.569 8.429 4.859 10.613 9.264s2.522 9.397.952 14.059l-67.652 200.813zM166.961 8.9a18.297 18.297 0 0114.042 1.136l87.092 44.646-111.374-37.519c2.284-3.932 5.875-6.856 10.24-8.263zm-57.312 20.273c3.238-9.619 13.708-14.808 23.332-11.566l96.973 32.668L108.69 32.028zm-44.846 9.793a18.306 18.306 0 0113.679-3.393l96.908 14.583H57.709c.897-4.497 3.379-8.449 7.094-11.19zM210.862 356.14H35.195c-10.152 0-18.411-8.259-18.411-18.411V76.566c0-10.152 8.259-18.411 18.411-18.411h175.667c10.152 0 18.411 8.259 18.411 18.411v261.163c0 1.5-.194 2.954-.537 4.349-.049.2-.248.93-.269.999-2.299 7.55-9.314 13.063-17.605 13.063zm134.457-241.188l-93.071 181.564 66.351-196.952a26.233 26.233 0 00-1.077-19.543l19.812 10.156a18.275 18.275 0 019.12 10.732 18.295 18.295 0 01-1.135 14.043z"/><path d="M147.3 187.783c.401-1.778.603-3.597.603-5.442 0-13.716-11.158-24.874-24.874-24.874s-24.874 11.158-24.874 24.874c0 1.845.202 3.664.603 5.442A24.837 24.837 0 0081.4 211.495c0 13.716 11.158 24.874 24.874 24.874 4.596 0 8.963-1.246 12.755-3.526v15.986h-8.242a4 4 0 000 8h24.483a4 4 0 000-8h-8.242v-15.986a24.644 24.644 0 0012.755 3.526c13.716 0 24.874-11.158 24.874-24.874a24.837 24.837 0 00-17.357-23.712zm-7.516 40.586c-5.378 0-10.314-2.495-13.542-6.846l-3.212-4.329-3.212 4.329c-3.229 4.351-8.165 6.846-13.542 6.846-9.304 0-16.874-7.57-16.874-16.874 0-8.602 6.44-15.807 14.98-16.759l5.418-.604-2.203-4.987a16.73 16.73 0 01-1.441-6.804c0-9.304 7.57-16.874 16.874-16.874s16.874 7.57 16.874 16.874c0 2.35-.485 4.639-1.441 6.803l-2.204 4.988 5.419.604c8.541.952 14.981 8.157 14.981 16.759-.001 9.304-7.571 16.874-16.875 16.874zM68.248 84.813c.08-.644.12-1.294.12-1.95 0-8.714-7.09-15.804-15.804-15.804S36.76 74.149 36.76 82.864c0 .656.04 1.306.12 1.95a15.785 15.785 0 00-9.595 14.537c0 8.714 7.089 15.804 15.804 15.804 1.887 0 3.738-.356 5.475-1.004v4.574h-2.923a4 4 0 000 8h13.845a4 4 0 000-8h-2.922v-4.574a15.663 15.663 0 005.474 1.004c8.714 0 15.804-7.089 15.804-15.804a15.783 15.783 0 00-9.594-14.538zm-6.209 22.341c-2.485 0-4.768-1.155-6.262-3.169l-3.212-4.329-3.212 4.329c-1.494 2.014-3.777 3.169-6.263 3.169-4.303 0-7.804-3.5-7.804-7.804a7.787 7.787 0 016.926-7.75l5.418-.604-2.202-4.987a7.752 7.752 0 01-.667-3.146c0-4.303 3.5-7.804 7.804-7.804s7.804 3.501 7.804 7.804a7.755 7.755 0 01-.667 3.146L57.5 90.996l5.418.604a7.786 7.786 0 016.926 7.75c-.001 4.303-3.502 7.804-7.805 7.804zM202.968 299.141c-1.888 0-3.737.356-5.475 1.004v-4.573h2.922a4 4 0 000-8H186.57a4 4 0 000 8h2.923v4.573a15.664 15.664 0 00-5.475-1.004c-8.714 0-15.804 7.089-15.804 15.804 0 6.48 3.903 12.115 9.595 14.537-.08.644-.12 1.294-.12 1.95 0 8.714 7.089 15.804 15.804 15.804 8.714 0 15.804-7.089 15.804-15.804 0-.656-.04-1.306-.12-1.95a15.786 15.786 0 009.595-14.537c0-8.715-7.09-15.804-15.804-15.804zm.878 23.554l-5.418.604 2.202 4.987a7.744 7.744 0 01.667 3.145c0 4.303-3.501 7.804-7.804 7.804-4.304 0-7.805-3.501-7.805-7.804 0-1.085.225-2.144.667-3.145l2.203-4.987-5.418-.604a7.786 7.786 0 01-6.926-7.75c0-4.303 3.501-7.804 7.804-7.804 2.485 0 4.768 1.155 6.263 3.169l3.213 4.328 3.212-4.329c1.493-2.014 3.776-3.168 6.262-3.168 4.303 0 7.804 3.5 7.804 7.804a7.787 7.787 0 01-6.926 7.75z" fill="white"/></svg>