<svg viewBox="0 0 24 24" width="24" height="24" fill="none" xmlns="http://www.w3.org/2000/svg"><rect width="24" height="24" rx="0" ry="0"/><path fill-rule="evenodd" clip-rule="evenodd" d="M18.552 18h-5.2c-.3 0-.6.3-.6.6s.3.6.6.6h5v-.7c0-.184 0-.3.2-.5-.1.1-.1 0 0 0z" fill="#139DB8"/><path fill-rule="evenodd" clip-rule="evenodd" d="M20.852 10V8.4c0-1.2-.9-2-1.8-2-.2 0-.5 0-.7.1v-.8c0-1-.8-1.8-1.8-1.8-.2 0-.4 0-.7.1v-.1c0-1-.8-1.8-1.8-1.8-.8 0-1.6.6-1.8 1.4-.2-.1-.5-.2-.7-.2-1 0-1.8.8-1.8 1.8v8c-.4-.4-1-.8-1.5-1.3-1.6-1.3-2.5-.2-2.9.2-.3.4-.5.9-.5 1.4 0 .5.3 1 .7 1.3.3.3.7.6 1 .9l.7.7c1.4 1.2 2.1 2.9 2.1 5 0 .3.3.6.6.6h9c.2 0 .3-.1.4-.2.1-.1.2-.3.2-.4l-.1-2.7c1.5-1.8 1.5-5.7 1.4-8.6zm-2.3 8c-.1.1-.1 0 0 0-.2.2-.2.3-.2.5v2.3h-7.8c-.1-2.2-1-4-2.6-5.3l-.6-.6c-.3-.3-.7-.7-1.1-1-.2-.1-.2-.3-.3-.5 0-.864.884-1.127 1.5-.6 1 .8 1.9 1.6 2.2 1.9.2.2.5.3.8.2.3-.1.5-.4.5-.7v-9c0-.4.3-.6.6-.6.4 0 .7.3.7.7v5.5c0 .3.3.6.6.6s.6-.3.6-.6V4c0-.4.3-.7.7-.7.4 0 .6.3.6.6v6.7c0 .3.3.6.6.6s.6-.3.6-.6V5.8c0-.3.3-.7.7-.7.4 0 .6.3.6.6V12c0 .3.3.6.6.6s.6-.3.6-.6V8.4c.1-.5.3-.8.7-.8.3 0 .6.3.6.8V10c0 2.6 0 6.6-1.2 8z" fill="#FFB6B6"/><path fill-rule="evenodd" clip-rule="evenodd" d="M18.554 18h-1.77c-.096 0-.193.3-.193.6s.097.6.194.6h1.579c-.008-.204 0-.593 0-.868 0-.16.19-.332.19-.332z" fill="#000" fill-opacity=".3"/></svg>