<svg viewBox="0 0 24 24" width="24" height="24" fill="none" xmlns="http://www.w3.org/2000/svg"><rect width="24" height="24" rx="0" ry="0"/><path fill-rule="evenodd" clip-rule="evenodd" d="M20.003 9.801h-1.63c-.33 0-.6.27-.6.6 0 .33.27.6.6.6h1.63c.55 0 1 .45 1 1s-.45 1-1 1h-6.21c-.33 0-.6.27-.6.6 0 .33.27.6.6.6h6.21c1.21 0 2.2-.99 2.2-2.2 0-1.21-.99-2.2-2.2-2.2z" fill="#FCAACF"/><path fill-rule="evenodd" clip-rule="evenodd" d="M9.323 14.201h1.77c.33 0 .6-.27.6-.6 0-.33-.27-.6-.6-.6H7.927a.62.62 0 00-.484.17.596.596 0 00.056.906l3.214 3.214c.39.39.39 1.02 0 1.41-.38.38-1.04.38-1.42 0l-6-6c-.04-.04-.09-.09-.12-.16a.53.53 0 00-.06-.1l-.04-.1a.78.78 0 00-.02-.07c-.01-.032-.02-.065-.02-.07a.75.75 0 01.02-.485c.01-.03.02-.06.02-.065l.04-.1.06-.11a.764.764 0 01.077-.1c.015-.016.03-.033.043-.05l6-6c.39-.39 1.03-.39 1.42 0 .19.19.29.44.29.71 0 .27-.1.52-.29.71l-3.27 3.26a.602.602 0 00.42 1.03h7.81c.33 0 .6-.27.6-.6 0-.33-.27-.6-.6-.6h-6.36l2.25-2.25c.42-.42.64-.97.64-1.56 0-.59-.23-1.14-.64-1.56-.83-.83-2.28-.83-3.11 0l-6 6c-.1.1-.19.21-.28.34-.019.025-.034.053-.054.093a3.009 3.009 0 01-.046.087c-.04.06-.07.12-.1.2-.023.052-.034.093-.054.167l-.026.093a1.22 1.22 0 00-.034.106l-.016.054a2.077 2.077 0 00.06 1.08c.02.07.04.13.07.19.03.07.06.13.12.24.006.02.034.065.056.1l.024.04c.08.12.17.23.27.33l6 6c.42.42.97.64 1.55.64.59 0 1.14-.23 1.56-.64.42-.42.64-.97.64-1.56 0-.59-.23-1.14-.64-1.56l-2.23-2.23z" fill="#2249B3"/></svg>